<svg xmlns="http://www.w3.org/2000/svg" xmlns:xlink="http://www.w3.org/1999/xlink" width="400" zoomAndPan="magnify" viewBox="0 0 300 299.999988" height="400" preserveAspectRatio="xMidYMid meet" version="1.0"><defs><clipPath id="5055e290c4"><path d="M 0 32.726562 L 300 32.726562 L 300 267.476562 L 0 267.476562 Z M 0 32.726562 " clip-rule="nonzero"/></clipPath></defs><g clip-path="url(#5055e290c4)"><path fill="#a6a6a6" d="M 73.183594 150.761719 L 117.980469 150.761719 L 117.980469 267.476562 L 0.0546875 267.476562 L 0.0546875 169.09375 C 0.0546875 120.957031 11.78125 86.46875 35.167969 65.566406 C 58.554688 44.664062 91.890625 33.714844 135.109375 32.726562 L 135.703125 80.074219 C 84.183594 85.480469 69.292969 108.03125 73.183594 150.761719 Z M 238.019531 150.761719 L 282.816406 150.761719 L 282.816406 267.476562 L 164.890625 267.476562 L 164.890625 169.09375 C 164.890625 120.957031 176.617188 86.46875 200.003906 65.566406 C 223.390625 44.664062 256.726562 33.714844 299.945312 32.726562 L 299.945312 80.535156 C 248.425781 85.875 234.132812 108.03125 238.019531 150.761719 Z M 238.019531 150.761719 " fill-opacity="1" fill-rule="nonzero"/></g></svg>